<svg id="color" height="512" viewBox="0 0 24 24" width="512" xmlns="http://www.w3.org/2000/svg"><path d="m21.25 22h-20.5c-.23 0-.449-.107-.591-.289-.143-.182-.192-.419-.137-.643l.53-2.122c.285-1.135 1.116-2.032 2.224-2.402l3.922-1.307c.444-.187.751-.949.801-2.051-.503-.475-1.406-1.475-1.406-2.539 0-.113-.015-.179-.025-.212-.163-.081-.293-.22-.362-.393-.052-.128-.496-1.262-.496-2.046l.023-.182c.066-.268.215-.537.434-.731.003-.084.008-.176.014-.273.024-.478.059-1.113.059-1.907-.001-1.929 2.258-4.903 5.26-4.903 2.527 0 3.819 1.326 4.127 2.275.604.36 1.18 1.002 1.18 2.628v2.184c.215.186.363.435.442.664l.041.245c0 .784-.444 1.918-.495 2.045-.069.173-.199.312-.362.393-.011.034-.025.1-.025.212 0 1.064-.903 2.064-1.406 2.539.051 1.102.361 1.866.852 2.07l3.871 1.288c1.107.37 1.938 1.267 2.224 2.401l.53 2.124c.056.224.006.461-.137.643-.143.183-.362.289-.592.289m-5.467-11.51-.002.001zm-9.566 0 .002.001zm-.003-.001.001.001z" fill="#eceff1"/><path d="m23.491 11.826-5.25-1.786c-.156-.054-.326-.054-.482 0l-5.25 1.786c-.305.103-.509.388-.509.71v4.018c0 4.904 5.474 7.288 5.707 7.387.188.08.397.08.586 0 .233-.1 5.707-2.483 5.707-7.387v-4.018c0-.322-.204-.607-.509-.71z" fill="#4caf50"/><path d="m21.286 15.618-2.75 3.5c-.351.447-1.006.512-1.437.142l-1.75-1.5c-.42-.359-.469-.991-.108-1.41.359-.419.991-.467 1.409-.108l.958.821 2.105-2.679c.341-.434.969-.511 1.404-.168.435.339.511.968.169 1.402z" fill="#fff"/><path d="m6.219 10.49h-.002zm-.004-.001-.001-.001zm4.785-10.489c-3.002 0-5.261 2.974-5.261 4.903 0 .794-.034 1.43-.059 1.907-.005.097-.01.189-.014.273-.219.194-.367.463-.434.731l-.022.182c0 .784.444 1.918.495 2.045.069.173.199.312.362.393.011.034.025.1.025.212 0 1.064.903 2.064 1.406 2.539-.05 1.102-.356 1.864-.801 2.051l-3.922 1.307c-1.107.37-1.938 1.267-2.224 2.402l-.53 2.122c-.056.224-.006.461.137.643.143.184.361.29.592.29h10.25z" fill="#cdd0d2"/><path d="m18 10c-.082 0-.163.013-.241.04l-5.25 1.786c-.305.103-.509.388-.509.71v4.018c0 4.904 5.474 7.288 5.707 7.387.094.039.193.059.293.059v-4.532c-.082.021-.166.032-.251.032-.23 0-.461-.079-.649-.241l-1.75-1.5c-.42-.359-.469-.991-.108-1.41.197-.23.477-.349.759-.349.23 0 .462.079.65.24l.958.821.391-.498z" fill="#429846"/><path d="m16.001 16c-.282 0-.562.118-.76.349-.36.419-.311 1.051.108 1.41l1.75 1.5c.188.162.419.241.649.241.085 0 .169-.011.251-.032v-2.905l-.392.498-.958-.821c-.187-.161-.418-.24-.648-.24" fill="#dedede"/></svg>